:SAMPLES-PER-SECOND 30
:FULLY-SPECIFIED
:DEGREES
467
root  69.0109 39.7143 1.06062 -104.658 -89.1774 101.892
RightUpLeg  -9.5109 -8.55176 -7.33569
RightLeg  30.2144 -1.64947 -1.26609
RightFoot  -6.69945 -0.25021 5.10103
RightToes  2.32829e-010 0 -3.6325e-017
Spine  15.8743 -0.904691 -1.72321
Spine1  7.22197 -1.09739 -0.617344
HEad  11.0069 9.44738 -2.17904
LeftShoulder1  8.95821 -13.4793 -46.0025
LeftArm  -11.725 26.6173 -26.6554
LeftForeArm  13.4223 -24.6474 -4.56929
LeftHand  -0.244104 0.0205437 5.32207
RightShoulder  5.26934 8.88414 36.5402
RightArm  10.8472 -23.9365 39.1961
RightForeArm  -12.0687 21.71 5.73907
RightHand  -0.550905 -1.9894 -18.6157
LeftUpLeg  3.01808 14.6363 0.965108
LeftLeg  15.9434 6.51749 0.740647
LeftFoot  -11.9529 0.0641898 -1.40034
LeftToes  1.42787e-010 7.94111e-011 2.6399e-011
468
root  69.1445 39.777 0.909798 -113.268 -89.0354 110.703
RightUpLeg  -4.94431 -7.35586 -6.95666
RightLeg  23.0269 -1.95788 -1.11473
RightFoot  -8.7262 -0.194659 5.70722
RightToes  2.32829e-010 0 -3.6325e-017
Spine  14.0548 -0.818811 -1.83721
Spine1  6.16691 -1.09361 0.018477
HEad  11.0914 8.54148 -1.69743
LeftShoulder1  8.82342 -13.2369 -45.9646
LeftArm  -11.9021 27.9769 -26.3749
LeftForeArm  13.0959 -23.6447 -4.37308
LeftHand  -0.244104 0.0205437 5.32207
RightShoulder  5.0229 8.41633 36.1503
RightArm  9.84775 -23.9683 38.9166
RightForeArm  -11.4333 21.4392 5.75438
RightHand  -0.600358 -1.63248 -18.3978
LeftUpLeg  3.37047 13.957 1.11114
LeftLeg  14.4449 7.25312 0.179846
LeftFoot  -11.5993 0.0668836 -1.1446
LeftToes  1.42787e-010 7.94111e-011 2.6399e-011
469
root  69.3158 39.8496 0.742471 -133.822 -88.6204 131.591
RightUpLeg  -1.95214 -7.66854 -6.46092
RightLeg  16.6575 -2.81467 -1.04502
RightFoot  -10.4938 -0.0972584 3.60511
RightToes  2.32829e-010 0 -3.6325e-017
Spine  12.4865 -0.673159 -1.2452
Spine1  5.14765 -0.769484 -0.0378726
HEad  10.4448 7.59395 -1.36713
LeftShoulder1  8.65359 -12.9266 -45.9297
LeftArm  -12.1343 28.6572 -25.5642
LeftForeArm  14.062 -22.7503 -4.17088
LeftHand  -0.244104 0.0205437 5.32207
RightShoulder  4.7223 7.7893 35.8394
RightArm  7.95431 -23.4209 38.8229
RightForeArm  -10.1194 20.6894 5.84808
RightHand  -0.680204 -1.10366 -18.3268
LeftUpLeg  3.5578 13.1511 1.13055
LeftLeg  12.7937 8.60858 -0.251854
LeftFoot  -10.9366 0.0690773 -0.937587
LeftToes  1.42787e-010 7.94111e-011 2.6399e-011
470
root  69.5771 39.9336 0.575133 -160.722 -87.7541 158.834
RightUpLeg  -1.40343 -8.35516 -6.04138
RightLeg  13.6996 -1.97498 -0.029662
RightFoot  -10.5432 -0.0794107 1.3565
RightToes  2.32829e-010 0 -3.6325e-017
Spine  11.1711 -0.454535 0.550848
Spine1  4.75335 -0.0882386 -1.00392
HEad  8.83868 6.73685 -1.35001
LeftShoulder1  8.48073 -12.5885 -45.9584
LeftArm  -12.5267 27.9814 -24.4684
LeftForeArm  15.3815 -21.2696 -3.94039
LeftHand  -0.244104 0.0205437 5.32207
RightShoulder  4.64573 7.54938 36.0442
RightArm  4.66271 -22.1947 38.1809
RightForeArm  -7.50058 19.7615 5.89487
RightHand  -0.710587 -0.779521 -17.8243
LeftUpLeg  3.2133 12.8719 1.40809
LeftLeg  11.9721 9.98488 -0.219178
LeftFoot  -10.0974 0.0735022 -1.16502
LeftToes  1.42787e-010 7.94111e-011 2.6399e-011
471
root  69.9204 39.9935 0.37965 -178.745 -86.4141 176.868
RightUpLeg  -1.84331 -9.15644 -5.66268
RightLeg  13.0135 0.439643 1.37228
RightFoot  -9.30002 -0.0964969 1.74356
RightToes  2.32829e-010 0 -3.6325e-017
Spine  10.6128 -0.15465 2.63705
Spine1  4.60336 0.622645 -1.99671
HEad  6.68554 6.17866 -1.71733
LeftShoulder1  8.20696 -12.1826 -45.6118
LeftArm  -13.4072 26.498 -23.8459
LeftForeArm  16.2795 -19.2031 -3.75575
LeftHand  -0.244104 0.0205437 5.32207
RightShoulder  4.81635 7.89889 36.2519
RightArm  0.0753856 -20.7536 36.9446
RightForeArm  -4.01298 18.9668 5.7533
RightHand  -0.729495 -0.433006 -17.069
LeftUpLeg  2.5428 14.0332 2.20174
LeftLeg  12.4981 10.0188 0.33237
LeftFoot  -9.82818 0.0825526 -1.82046
LeftToes  1.42787e-010 7.94111e-011 2.6399e-011
472
root  70.2887 39.9741 0.126624 175.963 -85.2864 -178.055
RightUpLeg  -2.05731 -10.0205 -5.52141
RightLeg  12.7462 2.34791 2.55291
RightFoot  -8.73545 -0.13785 3.53097
RightToes  2.32829e-010 0 -3.6325e-017
Spine  10.6117 0.088844 3.5454
Spine1  4.1772 0.942711 -2.00502
HEad  4.6181 6.06604 -2.10629
LeftShoulder1  7.62677 -11.5436 -44.1162
LeftArm  -14.5084 25.1847 -24.0141
LeftForeArm  17.0838 -17.2178 -3.61064
LeftHand  -0.244104 0.0205437 5.32207
RightShoulder  4.92038 8.31645 35.654
RightArm  -5.11779 -19.4844 35.6569
RightForeArm  -1.17088 18.3864 5.46747
RightHand  -0.880507 0.573157 -17.154
LeftUpLeg  1.42816 16.435 2.87322
LeftLeg  14.2463 8.37469 1.28989
LeftFoot  -10.0984 0.0897811 -2.68816
LeftToes  1.42787e-010 7.94111e-011 2.6399e-011
473
root  70.6417 39.8949 -0.153917 177.419 -84.9484 -179.754
RightUpLeg  -2.19517 -10.5725 -5.63673
RightLeg  12.8315 2.77213 3.31786
RightFoot  -9.65188 -0.128762 4.21894
RightToes  2.32829e-010 0 -3.6325e-017
Spine  10.6336 0.0921561 3.46152
Spine1  3.58583 0.856848 -1.47098
HEad  2.95105 6.33445 -1.92702
LeftShoulder1  6.73501 -10.6229 -41.3259
LeftArm  -15.3659 24.0144 -24.2377
LeftForeArm  18.2787 -15.2732 -3.45522
LeftHand  -0.244104 0.0205437 5.32207
RightShoulder  4.72908 8.26665 34.2219
RightArm  -10.0592 -18.1826 34.3091
RightForeArm  0.157064 17.7044 5.20354
RightHand  -1.19939 2.16388 -18.4789
LeftUpLeg  -0.249462 18.092 2.85331
LeftLeg  16.7916 7.05665 2.51459
LeftFoot  -9.96721 0.102272 -3.50477
LeftToes  1.42787e-010 7.94111e-011 2.6399e-011
474
root  70.9678 39.812 -0.405787 179.833 -85.124 177.446
RightUpLeg  -2.47566 -10.8931 -5.65711
RightLeg  13.6014 2.71177 3.64687
RightFoot  -10.9129 -0.0887704 3.98521
RightToes  2.32829e-010 0 -3.6325e-017
Spine  10.5786 -0.153441 3.79843
Spine1  3.30064 0.734345 -1.69233
HEad  1.61751 6.68951 -1.09408
LeftShoulder1  5.77971 -9.61523 -37.8949
LeftArm  -16.0969 22.2582 -23.5984
LeftForeArm  19.1317 -12.6087 -3.23396
LeftHand  -0.244104 0.0205437 5.32207
RightShoulder  4.35048 7.82378 32.4633
RightArm  -14.2881 -16.452 32.1665
RightForeArm  0.499996 16.2821 5.00632
RightHand  -1.55597 3.58692 -20.1919
LeftUpLeg  -2.00473 16.8905 2.58216
LeftLeg  19.7917 8.34045 3.66999
LeftFoot  -9.65054 0.119735 -4.20361
LeftToes  1.42787e-010 7.94111e-011 2.6399e-011
475
root  71.2536 39.7699 -0.606918 -178.907 -85.2939 175.575
RightUpLeg  -2.51471 -11.1495 -5.54188
RightLeg  14.3329 2.92174 3.61835
RightFoot  -11.5446 -0.0706915 4.27248
RightToes  2.32829e-010 0 -3.6325e-017
Spine  10.5239 -0.38492 4.7959
Spine1  3.37037 0.845058 -2.85369
HEad  0.533177 6.75065 -0.288962
LeftShoulder1  4.93475 -8.71323 -34.3222
LeftArm  -16.8417 20.0194 -22.1605
LeftForeArm  18.2345 -9.4058 -2.82712
LeftHand  -0.244104 0.0205437 5.32207
RightShoulder  3.94477 7.31238 30.5155
RightArm  -17.6843 -14.4847 28.7656
RightForeArm  0.368638 13.9927 4.72272
RightHand  -1.79652 4.39633 -21.3609
LeftUpLeg  -3.01093 15.5062 2.38815
LeftLeg  21.9021 9.25213 4.38672
LeftFoot  -10.5582 0.0957463 -4.96778
LeftToes  1.42787e-010 7.94111e-011 2.6399e-011
476
root  71.4785 39.793 -0.769394 -175.477 -85.2899 171.559
RightUpLeg  -2.15384 -11.2571 -5.66179
RightLeg  14.2605 3.11581 3.46363
RightFoot  -11.6876 -0.064499 4.95018
RightToes  2.32829e-010 0 -3.6325e-017
Spine  10.3699 -0.369778 5.33879
Spine1  3.27449 1.07864 -3.8617
HEad  -0.102792 6.3202 -0.25382
LeftShoulder1  4.1973 -7.92932 -30.642
LeftArm  -17.4107 18.4026 -20.385
LeftForeArm  15.8645 -7.07785 -2.32971
LeftHand  -0.244104 0.0205437 5.32207
RightShoulder  3.48962 6.73585 28.0666
RightArm  -20.0945 -12.9072 24.4888
RightForeArm  -0.81125 11.6416 4.28181
RightHand  -1.93142 4.85184 -21.9232
LeftUpLeg  -3.00232 14.9942 1.85292
LeftLeg  21.4636 8.34125 3.93814
LeftFoot  -12.6182 0.0149785 -5.55725
LeftToes  1.42787e-010 7.94111e-011 2.6399e-011
477
root  71.6415 39.8598 -0.904906 -168.832 -85.299 164.594
RightUpLeg  -1.78354 -11.2303 -6.05839
RightLeg  13.7433 2.99297 3.38662
RightFoot  -11.6439 -0.0657243 5.02079
RightToes  2.32829e-010 0 -3.6325e-017
Spine  10.0129 -0.216668 5.00493
Spine1  2.68022 1.16124 -3.97154
HEad  -0.0827473 5.5084 -0.950069
LeftShoulder1  3.59127 -7.31213 -27.0631
LeftArm  -17.7129 17.9951 -17.9675
LeftForeArm  13.96 -6.46047 -2.04128
LeftHand  -0.244104 0.0205437 5.32207
RightShoulder  2.94321 5.94657 25.0164
RightArm  -21.6449 -11.87 20.0205
RightForeArm  -3.56165 9.98236 3.86941
RightHand  -2.05084 5.27746 -22.3386
LeftUpLeg  -2.47524 14.7648 0.837219
LeftLeg  18.6565 6.42648 2.72366
LeftFoot  -13.4798 -0.0150748 -5.10035
LeftToes  1.42787e-010 7.94111e-011 2.6399e-011
478
root  71.7643 39.9254 -1.02575 -162.049 -85.5697 157.684
RightUpLeg  -1.59336 -11.212 -6.37689
RightLeg  13.363 2.64104 3.39902
RightFoot  -11.3976 -0.0750679 4.61375
RightToes  2.32829e-010 0 -3.6325e-017
Spine  9.50087 -0.187046 4.44972
Spine1  1.88149 1.00998 -3.59984
HEad  0.187764 4.75122 -1.54477
LeftShoulder1  3.14366 -6.95121 -23.7974
LeftArm  -17.5428 18.1573 -14.5513
LeftForeArm  13.1122 -6.92477 -1.95355
LeftHand  -0.244104 0.0205437 5.32207
RightShoulder  2.38482 5.00914 21.7194
RightArm  -22.6532 -10.9236 15.7159
RightForeArm  -7.09651 8.87415 3.60558
RightHand  -2.15003 5.63986 -22.6445
LeftUpLeg  -2.03799 13.4363 -0.150508
LeftLeg  15.6177 5.8279 1.85653
LeftFoot  -11.7525 0.0537185 -3.11064
LeftToes  1.42787e-010 7.94111e-011 2.6399e-011
479
root  71.8688 39.9705 -1.14735 -156.083 -86.0848 151.628
RightUpLeg  -1.40826 -11.1466 -6.42664
RightLeg  13.0397 2.07078 3.34833
RightFoot  -11.0259 -0.0872895 4.46852
RightToes  2.32829e-010 0 -3.6325e-017
Spine  8.93679 -0.286282 4.11376
Spine1  1.26664 0.801986 -3.44872
HEad  0.124322 4.33786 -1.36435
LeftShoulder1  2.72503 -6.64731 -20.3691
LeftArm  -17.4564 18.0291 -10.9559
LeftForeArm  12.8083 -7.61616 -1.86544
LeftHand  -0.244104 0.0205437 5.32207
RightShoulder  1.89136 4.03512 18.5817
RightArm  -23.2387 -9.80477 11.689
RightForeArm  -9.99812 7.88831 3.4285
RightHand  -2.16563 5.82875 -22.435
LeftUpLeg  -1.84613 10.7796 -0.62918
LeftLeg  13.9648 7.31876 1.51419
LeftFoot  -9.11291 0.0719221 -0.770321
LeftToes  1.42787e-010 7.94111e-011 2.6399e-011
